<?xml version="1.0" standalone="no"?>
<!DOCTYPE svg PUBLIC "-//W3C//DTD SVG 20010904//EN"
 "http://www.w3.org/TR/2001/REC-SVG-20010904/DTD/svg10.dtd">
<svg version="1.0" xmlns="http://www.w3.org/2000/svg"
 width="700.000000pt" height="700.000000pt" viewBox="0 0 700.000000 700.000000"
 preserveAspectRatio="xMidYMid meet">
<metadata>
Created by potrace 1.11, written by Peter Selinger 2001-2013
</metadata>
<g transform="translate(0.000000,700.000000) scale(0.100000,-0.100000)"
fill="#000000" stroke="none">
<path d="M3410 6842 c-35 -3 -188 -28 -225 -36 -468 -112 -850 -425 -1044
-854 -43 -97 -97 -269 -107 -344 -3 -24 -10 -63 -14 -87 -9 -49 -6 -367 3
-391 3 -8 8 -33 11 -55 17 -125 94 -335 175 -477 198 -346 535 -603 926 -708
41 -11 92 -23 113 -26 20 -3 48 -7 62 -10 319 -56 722 18 1013 188 158 92 254
171 402 332 23 25 104 134 130 175 89 143 177 365 199 506 2 17 7 49 11 73 13
83 14 98 15 207 0 103 -2 138 -15 225 -48 317 -188 597 -416 830 -231 236
-537 389 -879 441 -72 10 -287 17 -360 11z"/>
<path d="M3395 3112 c-30 -3 -173 -27 -210 -36 -382 -83 -742 -340 -952 -679
-90 -145 -178 -373 -198 -512 -4 -27 -10 -59 -12 -70 -3 -11 -6 -90 -8 -175
-4 -215 23 -374 96 -557 123 -310 339 -563 629 -739 59 -35 101 -56 193 -98
80 -36 272 -91 352 -102 28 -3 70 -9 95 -13 51 -8 309 -6 355 2 17 3 50 8 75
12 25 4 88 18 140 32 415 108 773 391 962 760 97 187 143 343 163 543 9 97 4
304 -9 349 -3 9 -8 36 -11 61 -21 149 -113 381 -210 530 -85 130 -232 290
-342 372 -32 24 -60 45 -63 49 -11 13 -180 109 -235 134 -105 48 -254 96 -345
111 -14 3 -52 10 -85 16 -58 10 -318 17 -380 10z"/>
</g>
</svg>
